<?xml version="1.0" standalone="no"?>
<!DOCTYPE svg PUBLIC "-//W3C//DTD SVG 20010904//EN"
 "http://www.w3.org/TR/2001/REC-SVG-20010904/DTD/svg10.dtd">
<svg version="1.0" xmlns="http://www.w3.org/2000/svg"
 width="303.000000pt" height="303.000000pt" viewBox="0 0 303.000000 303.000000"
 preserveAspectRatio="xMidYMid meet">
<metadata>
Created by potrace 1.11, written by Peter Selinger 2001-2013
</metadata>
<g transform="translate(0.000000,303.000000) scale(0.100000,-0.100000)"
fill="#000000" stroke="none">
<path d="M960 2675 c-69 -13 -126 -24 -127 -24 -2 -1 -3 -505 -3 -1121 l0
-1119 38 -10 c186 -49 418 -76 591 -68 154 7 228 25 351 85 78 38 110 61 176
127 66 66 89 98 128 175 74 152 89 223 90 430 0 203 -18 296 -83 434 -72 154
-164 249 -306 318 -192 92 -455 89 -647 -8 -26 -13 -50 -24 -53 -24 -3 0 -5
187 -5 415 0 326 -3 415 -12 414 -7 0 -69 -11 -138 -24z"/>
</g>
</svg>
